<svg id="visual" viewBox="0 0 900 600" width="900" height="600" xmlns="http://www.w3.org/2000/svg" xmlns:xlink="http://www.w3.org/1999/xlink" version="1.1"><rect x="0" y="0" width="900" height="600" fill="#0f1d22"></rect><path d="M0 515L21.5 501C43 487 86 459 128.8 446C171.7 433 214.3 435 257.2 439.3C300 443.7 343 450.3 385.8 443C428.7 435.7 471.3 414.3 514.2 403.2C557 392 600 391 642.8 406.3C685.7 421.7 728.3 453.3 771.2 471.2C814 489 857 493 878.5 495L900 497L900 601L878.5 601C857 601 814 601 771.2 601C728.3 601 685.7 601 642.8 601C600 601 557 601 514.2 601C471.3 601 428.7 601 385.8 601C343 601 300 601 257.2 601C214.3 601 171.7 601 128.8 601C86 601 43 601 21.5 601L0 601Z" fill="#B43104" stroke-linecap="round" stroke-linejoin="miter"></path></svg>